<svg xmlns="http://www.w3.org/2000/svg" xmlns:xlink="http://www.w3.org/1999/xlink" width="20" height="18" viewBox="0 0 20 18"><defs><path id="l1joa" d="M3291.9 4671.26l-7.22 5.87c-.18.16-.44.23-.69.22a1.07 1.07 0 0 1-.69-.22l-7.22-5.87c-.37-.3-.37-.77 0-1.06.36-.3.95-.3 1.31 0l6.6 5.36 6.6-5.36c.37-.3.96-.3 1.32 0 .36.29.36.77 0 1.06zm0 6.65l-7.22 5.87c-.18.15-.44.23-.69.22a1.07 1.07 0 0 1-.69-.22l-7.22-5.87c-.37-.3-.37-.77 0-1.07.36-.3.95-.3 1.31 0l6.6 5.37 6.6-5.37c.37-.3.96-.3 1.32 0 .36.3.36.77 0 1.07z"/></defs><g><g transform="translate(-3274 -4668)"><use fill="#ea2127" xlink:href="#l1joa"/></g></g></svg>